<svg width="207" height="64" viewBox="0 0 207 64" fill="none" xmlns="http://www.w3.org/2000/svg">
<g clip-path="url(#clip0_3_743)">
<path d="M114.479 17.6935L114.479 17.7239H114.477C114.187 17.7233 113.466 17.4644 112.695 16.9972C112.038 16.5983 111.345 16.0477 110.852 15.3764C110.082 14.3257 109.881 12.7668 110.542 12.1616C111.202 11.5564 112.6 11.939 113.268 13.0338C113.838 13.967 114.144 14.9842 114.306 15.8656C114.445 16.6203 114.478 17.2756 114.479 17.6935Z" fill="#6750A4"/>
<path d="M120.731 15.3764C120.239 16.0477 119.545 16.5983 118.888 16.9972C118.118 17.4644 117.397 17.7233 117.106 17.7239H117.104L117.104 17.6935C117.106 17.2756 117.138 16.6203 117.277 15.8656C117.439 14.9842 117.745 13.967 118.315 13.0338C118.984 11.939 120.381 11.5564 121.042 12.1616C121.702 12.7668 121.501 14.3257 120.731 15.3764Z" fill="#6750A4"/>
<path fill-rule="evenodd" clip-rule="evenodd" d="M114.917 4.58334C114.052 4.58334 113.33 5.21142 113.191 6.04167H113.167C112.2 6.04167 111.417 6.82517 111.417 7.79167V7.81663C110.199 7.70334 108.925 8.0034 107.817 8.92645C105.062 11.2227 105.396 15.8875 108.5 18.3864C108.935 18.7373 109.291 19.0343 109.577 19.3095L109.438 19.3283C108.57 19.4457 107.923 20.1866 107.923 21.0625V23.25C107.923 24.2165 108.706 25 109.673 25H121.911C122.877 25 123.661 24.2165 123.661 23.25V21.0625C123.661 20.1866 123.013 19.4457 122.145 19.3283L122.006 19.3095C122.292 19.0343 122.648 18.7373 123.084 18.3864C126.188 15.8875 126.522 11.2227 123.766 8.92645C122.659 8.0034 121.384 7.70334 120.167 7.81663V7.79167C120.167 6.82517 119.383 6.04167 118.417 6.04167H118.392C118.253 5.21142 117.531 4.58334 116.667 4.58334H114.917ZM120.166 9.5775C121.034 9.45677 121.897 9.64663 122.646 10.2708C124.396 11.7292 124.396 15.0833 121.986 17.0233C121.182 17.6705 120.428 18.3041 119.956 19.0322C119.797 19.2761 119.671 19.5306 119.585 19.7998C119.492 20.0912 119.446 20.3999 119.459 20.7309L121.911 21.0625V23.25H109.673V21.0625L112.124 20.7309C112.137 20.3999 112.091 20.0912 111.998 19.7998C111.912 19.5306 111.786 19.2761 111.628 19.0322C111.156 18.3041 110.401 17.6705 109.597 17.0233C107.188 15.0833 107.188 11.7292 108.938 10.2708C109.687 9.64663 110.55 9.45677 111.417 9.5775C111.966 9.65388 112.516 9.85459 113.04 10.1483C113.083 10.1719 113.125 10.1962 113.167 10.2211C113.65 10.5081 114.109 10.8733 114.521 11.2917C114.56 11.3314 114.599 11.3716 114.637 11.4123C114.671 11.4483 114.704 11.4853 114.736 11.523L114.816 9.54167H113.167V7.79167H114.871L114.917 6.33334H116.667L116.712 7.79167H118.417V9.54167H116.767L116.847 11.523C116.879 11.4853 116.912 11.4483 116.946 11.4123C116.984 11.3716 117.023 11.3314 117.062 11.2917C117.474 10.8733 117.933 10.5081 118.417 10.2211C118.459 10.1962 118.501 10.1719 118.543 10.1483C119.067 9.85459 119.618 9.65388 120.166 9.5775Z" fill="#6750A4"/>
</g>
<path d="M26.9062 56.3125L25.8125 63H0.09375L1.0625 56.9375L15.2188 41.3438C16.1146 40.3021 17.0312 39.1979 17.9688 38.0312C18.9062 36.8438 19.7188 35.5938 20.4062 34.2812C21.1146 32.9479 21.5521 31.5729 21.7188 30.1562C21.8229 29.3438 21.8333 28.4167 21.75 27.375C21.6667 26.3333 21.375 25.4375 20.875 24.6875C20.375 23.9167 19.5625 23.5104 18.4375 23.4688C17 23.4271 15.8542 23.8438 15 24.7188C14.1458 25.5938 13.5 26.6771 13.0625 27.9688C12.6458 29.2396 12.375 30.4271 12.25 31.5312L4.5 31.5938C4.72917 28.9271 5.45833 26.4688 6.6875 24.2188C7.9375 21.9688 9.61458 20.1667 11.7188 18.8125C13.8229 17.4375 16.2917 16.7812 19.125 16.8438C21.5833 16.8854 23.6458 17.4583 25.3125 18.5625C27 19.6458 28.2292 21.125 29 23C29.7917 24.875 30.0729 27.0104 29.8438 29.4062C29.6771 31.1562 29.25 32.8229 28.5625 34.4062C27.8958 35.9688 27.0729 37.4583 26.0938 38.875C25.1146 40.2708 24.0521 41.625 22.9062 42.9375C21.7604 44.2292 20.6146 45.5 19.4688 46.75L11.2812 56.2812L26.9062 56.3125ZM55.9937 48.0312L63.8687 47.9375C63.5146 51.0417 62.6292 53.7917 61.2125 56.1875C59.7958 58.5833 57.9 60.4479 55.525 61.7812C53.15 63.0938 50.3375 63.7083 47.0875 63.625C44.3583 63.5625 42.1187 62.9583 40.3687 61.8125C38.6396 60.6667 37.3062 59.1562 36.3687 57.2812C35.4521 55.4062 34.8792 53.3333 34.65 51.0625C34.4208 48.7917 34.4521 46.5104 34.7437 44.2188L35.9625 36.3125C36.3375 33.8333 36.9729 31.4167 37.8687 29.0625C38.7646 26.7083 39.9417 24.6042 41.4 22.75C42.8792 20.875 44.6812 19.4062 46.8062 18.3438C48.9521 17.2812 51.4312 16.7812 54.2437 16.8438C57.4312 16.9062 59.9625 17.6667 61.8375 19.125C63.7125 20.5625 65.0458 22.4792 65.8375 24.875C66.65 27.25 67.0562 29.875 67.0562 32.75L58.8687 32.7188C58.9521 31.2396 58.9104 29.8333 58.7437 28.5C58.5979 27.1667 58.15 26.0625 57.4 25.1875C56.65 24.3125 55.3896 23.8438 53.6187 23.7812C51.8896 23.7188 50.4521 24.0625 49.3062 24.8125C48.1604 25.5625 47.2333 26.5729 46.525 27.8438C45.8375 29.0938 45.3062 30.4583 44.9312 31.9375C44.5562 33.4167 44.2646 34.8542 44.0562 36.25L42.9312 44.25C42.7646 45.375 42.6292 46.6354 42.525 48.0312C42.4417 49.4062 42.5042 50.75 42.7125 52.0625C42.9208 53.375 43.4 54.4688 44.15 55.3438C44.9 56.1979 46.0771 56.6667 47.6812 56.75C49.5979 56.8125 51.0979 56.4583 52.1812 55.6875C53.2854 54.9167 54.1187 53.8646 54.6812 52.5312C55.2437 51.1771 55.6812 49.6771 55.9937 48.0312ZM83.4875 15L75.175 63H67.3313L75.675 15H83.4875ZM77.1438 44.9375L75.0188 45C75.2271 43.2917 75.5917 41.4792 76.1125 39.5625C76.6542 37.625 77.4042 35.8125 78.3625 34.125C79.3417 32.4167 80.5813 31.0417 82.0813 30C83.5813 28.9583 85.3938 28.4688 87.5188 28.5312C89.2896 28.5729 90.7063 29 91.7688 29.8125C92.8313 30.625 93.6125 31.6667 94.1125 32.9375C94.6125 34.2083 94.9146 35.5938 95.0188 37.0938C95.1229 38.5729 95.1021 40.0312 94.9563 41.4688L91.3625 63H83.55L87.1125 41.375C87.1958 40.5 87.2167 39.5938 87.175 38.6562C87.1542 37.7188 86.925 36.9271 86.4875 36.2812C86.05 35.6146 85.2479 35.2812 84.0813 35.2812C82.8521 35.2188 81.8208 35.5104 80.9875 36.1562C80.1542 36.8021 79.4771 37.6354 78.9563 38.6562C78.4563 39.6562 78.0604 40.7188 77.7688 41.8438C77.4771 42.9479 77.2688 43.9792 77.1438 44.9375ZM111.7 63.625C109.45 63.5833 107.533 63.1458 105.95 62.3125C104.387 61.4792 103.148 60.3438 102.231 58.9062C101.315 57.4479 100.69 55.8125 100.356 54C100.023 52.1667 99.9604 50.2188 100.169 48.1562L100.544 45.125C100.815 43 101.304 40.9375 102.012 38.9375C102.742 36.9375 103.71 35.1458 104.919 33.5625C106.148 31.9583 107.658 30.7083 109.45 29.8125C111.242 28.9167 113.346 28.4896 115.762 28.5312C118.075 28.5938 119.94 29.1146 121.356 30.0938C122.773 31.0521 123.835 32.3229 124.544 33.9062C125.273 35.4688 125.71 37.2083 125.856 39.125C126.002 41.0417 125.96 42.9583 125.731 44.875L125.169 48.7188H103.481L104.512 42.875L118.231 42.9062L118.387 42.0312C118.533 41.0729 118.575 40.0729 118.512 39.0312C118.45 37.9896 118.169 37.1146 117.669 36.4062C117.169 35.6771 116.304 35.2708 115.075 35.1875C113.762 35.125 112.69 35.4167 111.856 36.0625C111.023 36.6875 110.367 37.5208 109.887 38.5625C109.429 39.6042 109.085 40.7083 108.856 41.875C108.648 43.0208 108.492 44.1042 108.387 45.125L108.012 48.1875C107.908 49.1667 107.867 50.1562 107.887 51.1562C107.908 52.1562 108.054 53.0938 108.325 53.9688C108.596 54.8229 109.065 55.5208 109.731 56.0625C110.419 56.6042 111.387 56.8958 112.637 56.9375C114.137 56.9792 115.512 56.6979 116.762 56.0938C118.012 55.4688 119.179 54.6771 120.262 53.7188L123.106 58.625C122.231 59.7917 121.179 60.75 119.95 61.5C118.721 62.25 117.387 62.7917 115.95 63.125C114.533 63.4792 113.117 63.6458 111.7 63.625ZM144.913 53.8125C145.058 52.9375 144.86 52.2083 144.319 51.625C143.777 51.0208 143.121 50.5104 142.35 50.0938C141.579 49.6562 140.881 49.2917 140.256 49C139.152 48.4583 138.1 47.8854 137.1 47.2812C136.121 46.6562 135.256 45.9479 134.506 45.1562C133.756 44.3646 133.173 43.4583 132.756 42.4375C132.36 41.3958 132.204 40.1979 132.288 38.8438C132.371 37.2188 132.756 35.7708 133.444 34.5C134.131 33.2292 135.038 32.1458 136.163 31.25C137.288 30.3542 138.558 29.6771 139.975 29.2188C141.413 28.7396 142.902 28.5104 144.444 28.5312C146.548 28.5729 148.402 29.0312 150.006 29.9062C151.61 30.7604 152.84 31.9792 153.694 33.5625C154.569 35.125 154.985 36.9688 154.944 39.0938H147.163C147.183 38.3438 147.121 37.6354 146.975 36.9688C146.829 36.2812 146.517 35.7188 146.038 35.2812C145.579 34.8438 144.913 34.6354 144.038 34.6562C143.267 34.6562 142.579 34.8229 141.975 35.1562C141.392 35.4896 140.902 35.9479 140.506 36.5312C140.11 37.0938 139.84 37.7396 139.694 38.4688C139.59 39.0938 139.673 39.6458 139.944 40.125C140.235 40.5833 140.621 40.9896 141.1 41.3438C141.6 41.6771 142.131 41.9792 142.694 42.25C143.256 42.5208 143.756 42.75 144.194 42.9375C145.756 43.6875 147.183 44.5104 148.475 45.4062C149.788 46.2812 150.808 47.3542 151.538 48.625C152.267 49.8958 152.579 51.4896 152.475 53.4062C152.371 55.0938 151.944 56.5833 151.194 57.875C150.465 59.1667 149.496 60.25 148.288 61.125C147.1 61.9792 145.767 62.6146 144.288 63.0312C142.808 63.4688 141.288 63.6667 139.725 63.625C137.558 63.5625 135.642 63.0625 133.975 62.125C132.329 61.1875 131.048 59.9062 130.131 58.2812C129.215 56.6354 128.777 54.7396 128.819 52.5938L136.319 52.625C136.298 53.5417 136.392 54.375 136.6 55.125C136.808 55.875 137.204 56.4583 137.788 56.875C138.371 57.2917 139.173 57.5104 140.194 57.5312C140.985 57.5104 141.715 57.3646 142.381 57.0938C143.048 56.8229 143.6 56.4167 144.038 55.875C144.496 55.3125 144.788 54.625 144.913 53.8125ZM173.562 53.8125C173.708 52.9375 173.51 52.2083 172.969 51.625C172.427 51.0208 171.771 50.5104 171 50.0938C170.229 49.6562 169.531 49.2917 168.906 49C167.802 48.4583 166.75 47.8854 165.75 47.2812C164.771 46.6562 163.906 45.9479 163.156 45.1562C162.406 44.3646 161.823 43.4583 161.406 42.4375C161.01 41.3958 160.854 40.1979 160.938 38.8438C161.021 37.2188 161.406 35.7708 162.094 34.5C162.781 33.2292 163.688 32.1458 164.812 31.25C165.938 30.3542 167.208 29.6771 168.625 29.2188C170.062 28.7396 171.552 28.5104 173.094 28.5312C175.198 28.5729 177.052 29.0312 178.656 29.9062C180.26 30.7604 181.49 31.9792 182.344 33.5625C183.219 35.125 183.635 36.9688 183.594 39.0938H175.812C175.833 38.3438 175.771 37.6354 175.625 36.9688C175.479 36.2812 175.167 35.7188 174.688 35.2812C174.229 34.8438 173.562 34.6354 172.688 34.6562C171.917 34.6562 171.229 34.8229 170.625 35.1562C170.042 35.4896 169.552 35.9479 169.156 36.5312C168.76 37.0938 168.49 37.7396 168.344 38.4688C168.24 39.0938 168.323 39.6458 168.594 40.125C168.885 40.5833 169.271 40.9896 169.75 41.3438C170.25 41.6771 170.781 41.9792 171.344 42.25C171.906 42.5208 172.406 42.75 172.844 42.9375C174.406 43.6875 175.833 44.5104 177.125 45.4062C178.438 46.2812 179.458 47.3542 180.188 48.625C180.917 49.8958 181.229 51.4896 181.125 53.4062C181.021 55.0938 180.594 56.5833 179.844 57.875C179.115 59.1667 178.146 60.25 176.938 61.125C175.75 61.9792 174.417 62.6146 172.938 63.0312C171.458 63.4688 169.938 63.6667 168.375 63.625C166.208 63.5625 164.292 63.0625 162.625 62.125C160.979 61.1875 159.698 59.9062 158.781 58.2812C157.865 56.6354 157.427 54.7396 157.469 52.5938L164.969 52.625C164.948 53.5417 165.042 54.375 165.25 55.125C165.458 55.875 165.854 56.4583 166.438 56.875C167.021 57.2917 167.823 57.5104 168.844 57.5312C169.635 57.5104 170.365 57.3646 171.031 57.0938C171.698 56.8229 172.25 56.4167 172.688 55.875C173.146 55.3125 173.438 54.625 173.562 53.8125Z" fill="#6750A4"/>
<defs>
<clipPath id="clip0_3_743">
<rect width="21" height="21" fill="white" transform="translate(105 4)"/>
</clipPath>
</defs>
</svg>
