<svg width="116" height="120" viewBox="0 0 116 120" fill="none" xmlns="http://www.w3.org/2000/svg">
<path fill-rule="evenodd" clip-rule="evenodd" d="M45.1702 6.99664C45.292 3.09765 48.488 0 52.3889 0H63.2222C67.1231 0 70.3191 3.09765 70.4409 6.99664L70.5044 9.02778H74.0556C78.0443 9.02778 81.2778 12.2613 81.2778 16.25V20.6304C89.1503 18.8489 97.6476 20.0389 104.86 26.049C119.842 38.5346 118.464 64.7076 100.682 79.0235C96.3913 82.4783 93.0202 85.3424 90.6989 88.2934C90.1692 88.9667 89.7156 89.6181 89.3336 90.2558L96.6531 91.2457C100.235 91.7302 102.907 94.7881 102.907 98.4028V111.944C102.907 115.933 99.6739 119.167 95.6852 119.167H19.926C15.9373 119.167 12.7038 115.933 12.7038 111.944V98.4028C12.7038 94.7881 15.376 91.7302 18.958 91.2457L26.2775 90.2558C25.8956 89.6181 25.4419 88.9667 24.9123 88.2934C22.5909 85.3423 19.2198 82.4782 14.9287 79.0235C-2.85276 64.7076 -4.23136 38.5346 10.7514 26.049C17.9636 20.0389 26.4608 18.8489 34.3333 20.6304V16.25C34.3333 12.2613 37.5668 9.02778 41.5556 9.02778H45.1067L45.1702 6.99664Z" fill="#6750A4"/>
<path fill-rule="evenodd" clip-rule="evenodd" d="M52.3889 7.22222H63.2222L63.5043 16.25H74.0555V27.0833H63.8429L64.339 39.3484C64.5369 39.1152 64.7408 38.8866 64.9509 38.6632C74.815 28.1795 89.4401 22.6005 100.236 31.5972C111.069 40.625 111.069 61.3889 96.1532 73.3979C87.7037 80.2007 80.1354 86.7586 80.5084 96.3501L95.6851 98.4028V111.944H19.926V98.4028L35.1027 96.3501C35.4757 86.7586 27.9074 80.2006 19.4579 73.3979C4.54166 61.3889 4.54166 40.625 15.375 31.5972C26.171 22.6005 40.7961 28.1795 50.6602 38.6632C50.8703 38.8866 51.0742 39.1152 51.2721 39.3484L51.7682 27.0833H41.5555V16.25H52.1068L52.3889 7.22222ZM42.1839 48.7015C48.8043 59.5456 49.6805 72.2222 49.6805 77.735C46.3622 77.7409 33.8527 72.2375 27.2296 63.2028C22.4615 56.6985 21.2181 47.0482 25.3055 43.3017C29.3929 39.5553 38.0462 41.924 42.1839 48.7015ZM73.4272 48.7015C66.8068 59.5456 65.9305 72.2222 65.9305 77.735C69.2489 77.7409 81.7584 72.2375 88.3815 63.2028C93.1497 56.6985 94.393 47.0482 90.3055 43.3017C86.2182 39.5553 77.5649 41.924 73.4272 48.7015Z" fill="#E7E0EC"/>
</svg>
